# Blender 3.6.0
# www.blender.org
mtllib Nose.mtl
o NoseLQ
v -0.000000 2.734653 0.968344
v 0.977701 2.823330 0.917976
v 1.492399 2.901985 0.726379
v 2.285260 2.560547 -0.023639
v 2.389970 2.387714 -0.225034
v 2.010086 1.839546 0.002272
v 1.710346 1.586444 0.067985
v 0.921484 1.227127 0.309304
v 0.807510 0.826198 0.518025
v -0.000000 0.516609 0.775540
v 0.834464 3.205671 0.123567
v 1.297105 3.238764 -0.046486
v 2.254256 2.844161 -0.617363
v -0.000000 -0.048734 0.239795
v -0.000000 1.659810 1.192392
v 0.867460 1.574393 0.898940
v 1.276872 1.551640 0.653654
v 1.932304 1.674154 0.237794
v 0.570766 1.344603 0.508860
v -0.000000 1.026101 1.019081
v 1.660963 1.612401 0.146243
v 0.921423 1.460838 0.280153
v -0.000000 3.122841 0.288142
v -0.000000 0.045446 0.558236
v 0.733943 0.544285 0.266520
v 2.120725 1.773682 -0.190666
v 2.410426 2.441064 -0.470347
v 2.275288 2.768933 -0.315058
v 1.418464 3.117163 0.340731
v 0.904025 3.019527 0.499532
v -0.000000 2.895174 0.607145
v 0.409937 3.156614 0.238320
v 0.428095 2.921764 0.568235
v 0.461219 2.739165 0.953104
v 0.486590 1.592777 1.189773
v 0.529627 1.048107 1.057401
v 0.599953 0.430026 0.847310
v 0.419661 0.199939 0.502275
v 0.383124 0.024980 0.288974
v 1.416332 1.512128 0.175525
v 1.417645 1.575638 0.204392
v 1.641601 1.514798 0.466768
v 1.981822 2.793835 0.379681
v 1.912637 3.034122 0.031128
v 1.800562 3.145176 -0.320353
v -0.000000 2.358877 1.294333
v 0.509030 2.294508 1.288094
v 1.002695 2.215516 1.092107
v 1.447484 2.173247 0.887991
v 1.885729 2.094398 0.579556
v 2.202741 2.116963 0.211922
v 2.286805 2.115626 -0.100522
v 2.277409 2.118518 -0.394602
v 0.872353 0.817151 0.448944
v 0.603744 0.203617 0.410753
v -0.977701 2.823330 0.917976
v -1.492399 2.901985 0.726379
v -2.285260 2.560547 -0.023639
v -2.389970 2.387714 -0.225034
v -2.010086 1.839546 0.002272
v -1.710346 1.586444 0.067985
v -0.921484 1.227127 0.309304
v -0.807510 0.826198 0.518025
v -0.834464 3.205671 0.123567
v -1.297105 3.238764 -0.046486
v -2.254256 2.844161 -0.617363
v -0.867460 1.574393 0.898940
v -1.276872 1.551640 0.653654
v -1.932304 1.674154 0.237794
v -0.570766 1.344603 0.508860
v -1.660963 1.612401 0.146243
v -0.921423 1.460838 0.280153
v -0.733943 0.544285 0.266520
v -2.120725 1.773682 -0.190666
v -2.410426 2.441064 -0.470347
v -2.275288 2.768933 -0.315058
v -1.418464 3.117163 0.340731
v -0.904025 3.019527 0.499532
v -0.409937 3.156614 0.238320
v -0.428095 2.921764 0.568235
v -0.461219 2.739165 0.953104
v -0.486590 1.592777 1.189773
v -0.529627 1.048107 1.057401
v -0.599953 0.430026 0.847310
v -0.419661 0.199939 0.502275
v -0.383124 0.024980 0.288974
v -1.416332 1.512128 0.175525
v -1.417645 1.575638 0.204392
v -1.641601 1.514798 0.466768
v -1.981822 2.793835 0.379681
v -1.912637 3.034122 0.031128
v -1.800562 3.145176 -0.320353
v -0.509030 2.294508 1.288094
v -1.002695 2.215516 1.092107
v -1.447484 2.173247 0.887991
v -1.885729 2.094398 0.579556
v -2.202741 2.116963 0.211922
v -2.286805 2.115626 -0.100522
v -2.277409 2.118518 -0.394602
v -0.872353 0.817151 0.448944
v -0.603744 0.203617 0.410753
vn -0.0000 -0.7926 0.6097
vn -0.0000 -0.8993 0.4374
vn 0.2653 -0.8443 0.4655
vn 0.3806 -0.6829 0.6235
vn 0.1955 0.9061 0.3752
vn 0.1546 0.9451 0.2878
vn -0.0149 0.8983 0.4391
vn -0.0364 0.8927 0.4493
vn 0.8185 0.5548 0.1489
vn 0.7805 0.6214 0.0686
vn 0.4718 0.8689 0.1496
vn 0.5410 0.7987 0.2636
vn -0.0000 0.2946 0.9556
vn -0.0000 -0.1925 0.9813
vn 0.3217 -0.3013 0.8976
vn 0.1831 0.1792 0.9666
vn 0.3817 0.0040 0.9243
vn 0.5468 -0.5819 0.6020
vn 0.3323 -0.7923 0.5117
vn 0.4719 -0.0969 0.8763
vn 0.6566 -0.1539 0.7384
vn 0.4150 -0.8440 0.3398
vn 0.6512 -0.7391 0.1723
vn 0.8676 -0.2414 0.4347
vn 0.7451 -0.6312 0.2154
vn 0.9132 -0.3527 0.2039
vn 0.2575 -0.8603 0.4401
vn 0.3588 -0.9272 0.1074
vn 0.4976 -0.2678 0.8250
vn -0.0000 -0.3190 0.9477
vn -0.0000 -0.5042 0.8636
vn 0.5621 -0.4721 0.6790
vn 0.5127 -0.8444 0.1552
vn 0.2847 -0.2955 0.9119
vn 0.3662 -0.5664 0.7383
vn 0.7672 -0.3296 0.5503
vn 0.8438 -0.1294 0.5208
vn 0.4688 0.1547 0.8697
vn -0.0408 0.8714 0.4888
vn -0.0179 0.8383 0.5449
vn -0.0000 0.8144 0.5804
vn -0.0000 0.8685 0.4958
vn 0.7898 -0.5139 0.3349
vn 0.8331 -0.4785 0.2774
vn 0.4429 -0.1433 0.8851
vn 0.9058 -0.4165 0.0780
vn 0.9854 -0.0382 0.1658
vn 0.9927 0.0929 0.0769
vn 0.8852 0.2694 0.3793
vn 0.6797 0.4585 0.5726
vn 0.3715 0.5943 0.7133
vn 0.1355 0.6494 0.7482
vn 0.0383 0.7448 0.6662
vn -0.0000 0.7868 0.6172
vn 0.6842 -0.2697 0.6776
vn -0.3806 -0.6829 0.6235
vn -0.2653 -0.8443 0.4655
vn -0.1955 0.9061 0.3752
vn 0.0364 0.8927 0.4493
vn 0.0149 0.8983 0.4391
vn -0.1546 0.9451 0.2878
vn -0.8185 0.5548 0.1489
vn -0.5410 0.7987 0.2636
vn -0.4718 0.8689 0.1496
vn -0.7805 0.6214 0.0686
vn -0.1831 0.1792 0.9666
vn -0.3217 -0.3013 0.8976
vn -0.3817 0.0040 0.9243
vn -0.4719 -0.0969 0.8763
vn -0.3323 -0.7923 0.5117
vn -0.5468 -0.5819 0.6020
vn -0.6566 -0.1539 0.7384
vn -0.8676 -0.2414 0.4347
vn -0.6512 -0.7391 0.1723
vn -0.4150 -0.8440 0.3398
vn -0.9132 -0.3527 0.2039
vn -0.7451 -0.6312 0.2154
vn -0.3588 -0.9272 0.1074
vn -0.2575 -0.8603 0.4401
vn -0.4976 -0.2678 0.8250
vn -0.5621 -0.4721 0.6790
vn -0.5127 -0.8444 0.1552
vn -0.2847 -0.2955 0.9119
vn -0.3662 -0.5664 0.7383
vn -0.4688 0.1547 0.8697
vn -0.8438 -0.1294 0.5208
vn -0.7672 -0.3296 0.5503
vn 0.0408 0.8714 0.4888
vn 0.0179 0.8383 0.5449
vn -0.7898 -0.5139 0.3349
vn -0.8332 -0.4785 0.2774
vn -0.4429 -0.1433 0.8851
vn -0.9058 -0.4165 0.0780
vn -0.9854 -0.0382 0.1658
vn -0.8852 0.2694 0.3793
vn -0.9927 0.0929 0.0769
vn -0.6797 0.4585 0.5726
vn -0.3715 0.5943 0.7133
vn -0.1355 0.6494 0.7482
vn -0.0383 0.7448 0.6662
vn -0.6842 -0.2697 0.6776
vt 0.500000 0.160203
vt 0.500000 0.097416
vt 0.577661 0.116216
vt 0.586590 0.174660
vt 0.759290 0.746766
vt 0.773402 0.822539
vt 0.674463 0.825251
vt 0.666434 0.745084
vt 0.945547 0.708881
vt 0.988766 0.746381
vt 0.884147 0.800622
vt 0.855018 0.738057
vt 0.500000 0.584207
vt 0.500000 0.468281
vt 0.584027 0.459372
vt 0.578134 0.573978
vt 0.661674 0.570504
vt 0.667908 0.454559
vt 0.749523 0.469730
vt 0.734826 0.573338
vt 0.814309 0.574012
vt 0.807927 0.486093
vt 0.860364 0.509429
vt 0.885109 0.584911
vt 0.906911 0.523413
vt 0.936973 0.588321
vt 0.818694 0.433599
vt 0.853131 0.461576
vt 0.595249 0.360851
vt 0.500000 0.352613
vt 0.500000 0.252353
vt 0.599773 0.253444
vt 0.870918 0.460153
vt 0.824989 0.422774
vt 0.748433 0.389757
vt 0.691500 0.372607
vt 0.687969 0.281194
vt 0.752345 0.347774
vt 0.578648 0.739541
vt 0.584620 0.817840
vt 0.500000 0.811711
vt 0.500000 0.734731
vt 0.949720 0.517498
vt 0.690642 0.203194
vt 0.626830 0.157482
vt 0.991513 0.590089
vt 0.954689 0.639486
vt 0.996094 0.659293
vt 0.912086 0.659165
vt 0.829944 0.677093
vt 0.743405 0.680008
vt 0.663253 0.668004
vt 0.578876 0.663938
vt 0.500000 0.664311
vt 0.705707 0.274412
vt 0.413410 0.174659
vt 0.422339 0.116216
vt 0.240710 0.746766
vt 0.333566 0.745084
vt 0.325537 0.825251
vt 0.226598 0.822539
vt 0.054453 0.708881
vt 0.144981 0.738057
vt 0.115853 0.800622
vt 0.011234 0.746381
vt 0.421866 0.573978
vt 0.415973 0.459372
vt 0.338326 0.570503
vt 0.265174 0.573338
vt 0.250477 0.469730
vt 0.332092 0.454559
vt 0.185691 0.574013
vt 0.114891 0.584911
vt 0.139636 0.509429
vt 0.192073 0.486093
vt 0.063027 0.588321
vt 0.093089 0.523413
vt 0.146869 0.461576
vt 0.181306 0.433599
vt 0.404751 0.360851
vt 0.400227 0.253444
vt 0.129082 0.460153
vt 0.175011 0.422774
vt 0.251567 0.389757
vt 0.247655 0.347774
vt 0.312031 0.281194
vt 0.308500 0.372607
vt 0.421352 0.739541
vt 0.415379 0.817840
vt 0.050280 0.517498
vt 0.309358 0.203194
vt 0.373170 0.157482
vt 0.008487 0.590089
vt 0.045311 0.639486
vt 0.087914 0.659165
vt 0.003906 0.659293
vt 0.170056 0.677093
vt 0.256595 0.680008
vt 0.336747 0.668004
vt 0.421124 0.663938
vt 0.294293 0.274412
s 1
usemtl Nose
f 24/1/1 14/2/2 39/3/3 38/4/4
f 29/5/5 12/6/6 11/7/7 30/8/8
f 28/9/9 13/10/10 45/11/11 44/12/12
f 46/13/13 15/14/14 35/15/15 47/16/16
f 48/17/17 16/18/18 17/19/19 49/20/20
f 50/21/21 42/22/22 18/23/23 51/24/24
f 51/24/24 18/23/23 6/25/25 52/26/26
f 42/22/22 41/27/27 21/28/28 18/23/23
f 36/29/29 20/30/30 10/31/31 37/32/32
f 18/23/23 21/28/28 7/33/33 6/25/25
f 21/28/28 41/27/27 40/34/34 7/33/33
f 15/14/14 20/30/30 36/29/29 35/15/15
f 22/35/35 19/36/36 9/37/37 8/38/38
f 16/18/18 19/36/36 22/35/35 17/19/19
f 33/39/39 32/40/40 23/41/41 31/42/42
f 10/31/31 24/1/1 38/4/4 37/32/32
f 6/25/25 7/33/33 26/43/43
f 25/44/44 38/4/4 55/45/45
f 6/25/25 26/43/43 53/46/46 52/26/26
f 5/47/47 27/48/48 28/9/9 4/49/49
f 4/49/49 28/9/9 44/12/12 43/50/50
f 3/51/51 29/5/5 30/8/8 2/52/52
f 34/53/53 33/39/39 31/42/42 1/54/54
f 30/8/8 11/7/7 32/40/40 33/39/39
f 2/52/52 30/8/8 33/39/39 34/53/53
f 47/16/16 35/15/15 16/18/18 48/17/17
f 35/15/15 36/29/29 19/36/36 16/18/18
f 19/36/36 36/29/29 37/32/32 9/37/37
f 37/32/32 38/4/4 25/44/44 9/37/37
f 41/27/27 22/35/35 8/38/38 40/34/34
f 17/19/19 22/35/35 41/27/27 42/22/22
f 49/20/20 17/19/19 42/22/22 50/21/21
f 43/50/50 44/12/12 29/5/5 3/51/51
f 44/12/12 45/11/11 12/6/6 29/5/5
f 1/54/54 46/13/13 47/16/16 34/53/53
f 34/53/53 47/16/16 48/17/17 2/52/52
f 2/52/52 48/17/17 49/20/20 3/51/51
f 3/51/51 49/20/20 50/21/21 43/50/50
f 43/50/50 50/21/21 51/24/24 4/49/49
f 4/49/49 51/24/24 52/26/26 5/47/47
f 52/26/26 53/46/46 27/48/48 5/47/47
f 28/9/9 27/48/48 13/10/10
f 9/37/37 25/44/44 54/55/55
f 54/55/55 8/38/38 9/37/37
f 55/45/45 38/4/4 39/3/3
f 24/1/1 85/56/56 86/57/57 14/2/2
f 77/58/58 78/59/59 64/60/60 65/61/61
f 76/62/62 91/63/63 92/64/64 66/65/65
f 46/13/13 93/66/66 82/67/67 15/14/14
f 94/68/68 95/69/69 68/70/70 67/71/71
f 96/72/72 97/73/73 69/74/74 89/75/75
f 97/73/73 98/76/76 60/77/77 69/74/74
f 89/75/75 69/74/74 71/78/78 88/79/79
f 83/80/80 84/81/81 10/31/31 20/30/30
f 69/74/74 60/77/77 61/82/82 71/78/78
f 71/78/78 61/82/82 87/83/83 88/79/79
f 15/14/14 82/67/67 83/80/80 20/30/30
f 72/84/84 62/85/85 63/86/86 70/87/87
f 67/71/71 68/70/70 72/84/84 70/87/87
f 80/88/88 31/42/42 23/41/41 79/89/89
f 10/31/31 84/81/81 85/56/56 24/1/1
f 60/77/77 74/90/90 61/82/82
f 73/91/91 101/92/92 85/56/56
f 60/77/77 98/76/76 99/93/93 74/90/90
f 59/94/94 58/95/95 76/62/62 75/96/96
f 58/95/95 90/97/97 91/63/63 76/62/62
f 57/98/98 56/99/99 78/59/59 77/58/58
f 81/100/100 1/54/54 31/42/42 80/88/88
f 78/59/59 80/88/88 79/89/89 64/60/60
f 56/99/99 81/100/100 80/88/88 78/59/59
f 93/66/66 94/68/68 67/71/71 82/67/67
f 82/67/67 67/71/71 70/87/87 83/80/80
f 70/87/87 63/86/86 84/81/81 83/80/80
f 84/81/81 63/86/86 73/91/91 85/56/56
f 88/79/79 87/83/83 62/85/85 72/84/84
f 68/70/70 89/75/75 88/79/79 72/84/84
f 95/69/69 96/72/72 89/75/75 68/70/70
f 90/97/97 57/98/98 77/58/58 91/63/63
f 91/63/63 77/58/58 65/61/61 92/64/64
f 1/54/54 81/100/100 93/66/66 46/13/13
f 81/100/100 56/99/99 94/68/68 93/66/66
f 56/99/99 57/98/98 95/69/69 94/68/68
f 57/98/98 90/97/97 96/72/72 95/69/69
f 90/97/97 58/95/95 97/73/73 96/72/72
f 58/95/95 59/94/94 98/76/76 97/73/73
f 98/76/76 59/94/94 75/96/96 99/93/93
f 76/62/62 66/65/65 75/96/96
f 63/86/86 100/101/101 73/91/91
f 100/101/101 63/86/86 62/85/85
f 101/92/92 86/57/57 85/56/56
